<svg fill="#FD4600" width="30" viewBox="0 0 8 32" xmlns="http://www.w3.org/2000/svg">
  <path d="M1.338 27.366c.006-1.786.486-3.987 2.266-3.987h4.25v3.149h-1.83c-.006 0 .269.768.448 1.35.109.397.333.691.736.717.339.032.653-.352.653-.352v3.085c0 .006-.25.685-.986.666-1.408-.064-1.92-1.158-2.234-3.853-.179-1.453-.32-1.613-.685-1.619-.301 0-.64.179-.653.998 0 1.184.8 1.101.8 1.101v3.021c0 .013-2.765-.019-2.765-4.275zm.064-9.555a1.856 1.856 0 001.018 1.414h-.902v2.938h6.336v-3.2H4.82c-.538-.006-.774-.154-.966-.352-.224-.224-.384-.608-.384-1.037v-.902H1.518c0 .006-.211.467-.115 1.139zM.019 11.424v3.168h1.498v1.318h1.952v-1.318h2.586c.557 0 1.011.006 1.453-.397.365-.358.352-.826.352-1.382v-1.382H3.47V9.53H1.518v1.901H.02zm1.363-6.918C1.44-.806 6.246.052 6.252.052v5.67h1.6v2.317c0-.006-.864.954-2.566.934-3.974-.032-3.904-4.301-3.904-4.467zm3.271-1.383c-.006.006-1.299-.134-1.299 1.382-.006 1.459 1.293 1.299 1.299 1.299V3.122z"/>
</svg>
